<?xml version="1.0" encoding="UTF-8"?>
<svg xmlns="http://www.w3.org/2000/svg" xmlns:xlink="http://www.w3.org/1999/xlink" width="70pt" height="70pt" viewBox="0 0 70 70" version="1.1">
<g id="surface1">
<path style=" stroke:none;fill-rule:nonzero;fill:rgb(0%,0%,0%);fill-opacity:1;" d="M 43.054688 25.976562 L 41.328125 27.71875 C 41.269531 27.777344 41.203125 27.820312 41.140625 27.875 L 52.890625 39.730469 C 53.410156 40.238281 54.246094 40.238281 54.765625 39.730469 C 55.289062 39.195312 55.289062 38.335938 54.765625 37.800781 L 54.753906 37.785156 Z M 43.054688 25.976562 "/>
<path style=" stroke:none;fill-rule:nonzero;fill:rgb(0%,0%,0%);fill-opacity:1;" d="M 0.75 42.167969 C 1.078125 42.394531 1.421875 42.597656 1.78125 42.765625 C 2.847656 43.3125 4.308594 44.058594 4.609375 45.585938 C 4.785156 46.53125 4.671875 47.507812 4.273438 48.382812 C 4.054688 48.84375 3.832031 49.246094 3.636719 49.589844 C 3.574219 49.699219 3.511719 49.816406 3.445312 49.925781 C 3.964844 50.34375 4.671875 50.875 4.972656 51.09375 C 5.246094 51.296875 5.421875 51.597656 5.46875 51.933594 C 5.511719 52.269531 5.417969 52.609375 5.207031 52.875 C 5.023438 53.117188 4.859375 53.375 4.726562 53.648438 C 4.8125 53.699219 4.898438 53.746094 4.984375 53.796875 C 6.089844 54.273438 6.933594 55.203125 7.296875 56.351562 C 7.480469 57.234375 7.445312 58.148438 7.191406 59.011719 C 7.132812 59.273438 7.074219 59.535156 7.039062 59.796875 C 6.96875 60.550781 7.066406 61.316406 7.332031 62.027344 C 7.613281 63.175781 8.742188 63.910156 9.90625 63.691406 C 13.550781 62.8125 17.136719 61.730469 20.65625 60.441406 L 20.664062 60.441406 C 21.96875 59.996094 23.148438 59.582031 24.078125 59.257812 C 24.945312 58.957031 25.59375 58.730469 25.933594 58.621094 C 31.132812 56.976562 32.183594 55.101562 32.15625 53.816406 C 32.140625 53.125 32.6875 52.554688 33.375 52.539062 C 33.707031 52.523438 34.03125 52.644531 34.273438 52.875 C 34.515625 53.105469 34.652344 53.425781 34.652344 53.757812 C 34.726562 56.871094 32.046875 59.3125 26.691406 61.007812 C 26.371094 61.109375 25.738281 61.332031 24.902344 61.621094 L 23.777344 62.015625 C 25.839844 64.304688 27.34375 67.035156 28.171875 70 L 56.523438 69.921875 L 56.4375 69.796875 C 56.078125 69.277344 55.753906 68.734375 55.46875 68.171875 C 54.847656 66.90625 54.328125 65.597656 53.917969 64.25 C 53.160156 61.691406 52.632812 59.070312 52.347656 56.417969 C 51.855469 52.234375 52.488281 47.996094 54.179688 44.140625 C 54.441406 43.550781 54.730469 42.972656 55.054688 42.410156 C 54.710938 42.53125 54.351562 42.597656 53.988281 42.613281 C 53.953125 43.578125 53.5625 44.496094 52.886719 45.183594 C 52.207031 45.867188 51.296875 46.265625 50.332031 46.300781 C 50.300781 47.265625 49.910156 48.179688 49.234375 48.867188 C 48.515625 49.59375 47.539062 50.003906 46.519531 50.003906 C 45.496094 50.003906 44.519531 49.59375 43.800781 48.867188 L 24.015625 28.894531 L 24.011719 28.886719 L 23.714844 28.589844 C 23.703125 28.578125 23.703125 28.566406 23.695312 28.554688 C 18.617188 23.097656 18.761719 14.601562 24.023438 9.320312 C 26.589844 6.722656 30.085938 5.257812 33.738281 5.257812 C 37.390625 5.257812 40.890625 6.722656 43.457031 9.320312 C 43.777344 9.636719 43.90625 10.101562 43.789062 10.535156 C 43.671875 10.972656 43.332031 11.3125 42.894531 11.425781 C 42.457031 11.539062 41.992188 11.40625 41.679688 11.078125 C 39.582031 8.953125 36.722656 7.757812 33.738281 7.757812 C 30.753906 7.757812 27.894531 8.953125 25.796875 11.078125 C 21.484375 15.410156 21.363281 22.378906 25.527344 26.855469 C 25.613281 26.949219 25.703125 27.042969 25.792969 27.132812 L 45.582031 47.105469 C 46.101562 47.613281 46.933594 47.613281 47.457031 47.105469 C 47.980469 46.570312 47.980469 45.710938 47.457031 45.175781 L 32.238281 29.816406 C 31.753906 29.324219 31.757812 28.535156 32.246094 28.046875 C 32.738281 27.5625 33.527344 27.566406 34.015625 28.054688 L 49.234375 43.417969 C 49.484375 43.671875 49.820312 43.8125 50.171875 43.8125 C 50.527344 43.8125 50.863281 43.671875 51.109375 43.417969 C 51.636719 42.882812 51.636719 42.027344 51.109375 41.492188 L 38.589844 28.851562 C 37.578125 28.847656 36.609375 28.441406 35.898438 27.726562 C 34.410156 26.214844 34.410156 23.785156 35.898438 22.277344 L 48.96875 9.09375 C 48.976562 9.082031 48.980469 9.070312 48.988281 9.0625 C 49.101562 8.949219 49.214844 8.839844 49.328125 8.730469 C 50.5625 7.566406 52 6.640625 53.566406 6 C 47.5 1.578125 41.761719 -0.285156 35.148438 0.0351562 C 31.207031 0.3125 27.285156 0.878906 23.425781 1.726562 C 18.378906 2.726562 14.609375 4.519531 12.21875 7.046875 C 10.246094 9.160156 8.722656 11.65625 7.734375 14.375 C 7.320312 15.585938 6.980469 16.816406 6.714844 18.070312 L 6.589844 18.601562 C 6.289062 19.738281 5.878906 20.84375 5.367188 21.898438 C 5.132812 22.425781 4.894531 22.949219 4.691406 23.484375 C 4.574219 23.757812 4.507812 24.046875 4.5 24.34375 C 4.554688 24.746094 5.03125 25.183594 5.535156 25.648438 C 6.570312 26.375 7.234375 27.515625 7.363281 28.773438 C 7.335938 29.367188 7.171875 29.945312 6.875 30.460938 C 5.308594 33.753906 3.390625 36.871094 1.15625 39.75 C 0.203125 40.914062 0 41.375 0 41.5625 C 0.230469 41.785156 0.480469 41.988281 0.75 42.167969 Z M 9.023438 19.175781 L 9.148438 18.632812 C 9.390625 17.488281 9.699219 16.359375 10.074219 15.25 C 10.945312 12.84375 12.292969 10.636719 14.035156 8.765625 C 15.949219 6.917969 18.308594 5.597656 20.882812 4.925781 C 21.542969 4.726562 22.242188 5.097656 22.445312 5.757812 C 22.644531 6.417969 22.273438 7.117188 21.613281 7.320312 C 19.453125 7.867188 17.472656 8.953125 15.851562 10.484375 C 14.339844 12.109375 13.175781 14.019531 12.421875 16.109375 C 12.082031 17.121094 11.804688 18.152344 11.585938 19.195312 L 11.460938 19.738281 C 11.371094 20.183594 11.042969 20.542969 10.609375 20.679688 C 10.175781 20.816406 9.703125 20.707031 9.375 20.394531 C 9.042969 20.082031 8.910156 19.613281 9.023438 19.175781 Z M 8.75 22.5 C 9.441406 22.5 10 23.058594 10 23.75 C 10 24.441406 9.441406 25 8.75 25 C 8.058594 25 7.5 24.441406 7.5 23.75 C 7.5 23.058594 8.058594 22.5 8.75 22.5 Z M 8.75 22.5 "/>
<path style=" stroke:none;fill-rule:nonzero;fill:rgb(0%,0%,0%);fill-opacity:1;" d="M 66.644531 10.820312 C 64 8.121094 60.160156 6.953125 56.457031 7.722656 L 56.4375 7.722656 C 54.414062 8.144531 52.550781 9.121094 51.050781 10.539062 L 37.675781 24.027344 C 37.148438 24.5625 37.148438 25.421875 37.675781 25.953125 C 37.921875 26.207031 38.257812 26.347656 38.613281 26.347656 C 38.964844 26.347656 39.304688 26.207031 39.550781 25.953125 L 42.167969 23.3125 L 45.808594 19.640625 L 48.667969 16.757812 C 48.917969 16.503906 49.261719 16.367188 49.617188 16.386719 C 49.972656 16.402344 50.300781 16.570312 50.527344 16.847656 C 51.796875 18.339844 53.574219 19.3125 55.515625 19.574219 C 57.339844 19.554688 59.066406 18.746094 60.25 17.355469 C 60.738281 16.878906 61.519531 16.882812 62.003906 17.363281 C 62.488281 17.84375 62.5 18.621094 62.027344 19.113281 C 60.355469 21.027344 57.925781 22.101562 55.390625 22.058594 C 53.203125 21.859375 51.148438 20.921875 49.566406 19.402344 L 48.460938 20.515625 L 60.195312 32.359375 C 60.363281 32.53125 60.515625 32.71875 60.648438 32.921875 L 66.839844 26.671875 L 66.910156 26.597656 C 71.078125 22.125 70.960938 15.15625 66.644531 10.820312 Z M 66.644531 10.820312 "/>
<path style=" stroke:none;fill-rule:nonzero;fill:rgb(0%,0%,0%);fill-opacity:1;" d="M 56.550781 36.046875 C 57.070312 36.558594 57.902344 36.558594 58.425781 36.046875 C 58.949219 35.515625 58.949219 34.65625 58.425781 34.121094 L 46.710938 22.300781 L 44.8125 24.203125 L 56.546875 36.042969 Z M 56.550781 36.046875 "/>
</g>
</svg>
