<?xml version="1.0" encoding="UTF-8"?>
<svg xmlns="http://www.w3.org/2000/svg" xmlns:xlink="http://www.w3.org/1999/xlink" width="70pt" height="70pt" viewBox="0 0 70 70" version="1.1">
<g id="surface1">
<path style=" stroke:none;fill-rule:nonzero;fill:rgb(0%,0%,0%);fill-opacity:1;" d="M 6.234375 24.753906 C 6.234375 23.621094 5.316406 22.703125 4.183594 22.703125 L 2.050781 22.703125 C 0.917969 22.703125 0 23.621094 0 24.753906 C 0 25.886719 0.917969 26.804688 2.050781 26.804688 L 4.183594 26.804688 C 5.316406 26.804688 6.234375 25.886719 6.234375 24.753906 Z M 6.234375 24.753906 "/>
<path style=" stroke:none;fill-rule:nonzero;fill:rgb(0%,0%,0%);fill-opacity:1;" d="M 7.304688 8.289062 C 9.148438 8.289062 10.070312 6.015625 8.703125 4.742188 L 7.140625 3.285156 C 6.3125 2.511719 5.015625 2.558594 4.242188 3.386719 C 3.472656 4.214844 3.515625 5.511719 4.34375 6.285156 C 5.605469 7.3125 6.050781 8.289062 7.304688 8.289062 Z M 7.304688 8.289062 "/>
<path style=" stroke:none;fill-rule:nonzero;fill:rgb(0%,0%,0%);fill-opacity:1;" d="M 5.90625 41.480469 L 4.34375 42.933594 C 3.515625 43.707031 3.472656 45.003906 4.242188 45.832031 C 5.015625 46.660156 6.3125 46.707031 7.140625 45.933594 L 8.703125 44.480469 C 9.53125 43.707031 9.578125 42.410156 8.804688 41.582031 C 8.03125 40.75 6.734375 40.707031 5.90625 41.480469 Z M 5.90625 41.480469 "/>
<path style=" stroke:none;fill-rule:nonzero;fill:rgb(0%,0%,0%);fill-opacity:1;" d="M 67.949219 22.414062 L 65.816406 22.414062 C 64.683594 22.414062 63.765625 23.332031 63.765625 24.464844 C 63.765625 25.597656 64.683594 26.515625 65.816406 26.515625 L 67.949219 26.515625 C 69.082031 26.515625 70 25.597656 70 24.464844 C 70 23.332031 69.082031 22.414062 67.949219 22.414062 Z M 67.949219 22.414062 "/>
<path style=" stroke:none;fill-rule:nonzero;fill:rgb(0%,0%,0%);fill-opacity:1;" d="M 64.09375 41.480469 C 63.265625 40.707031 61.96875 40.753906 61.195312 41.582031 C 60.421875 42.410156 60.46875 43.707031 61.296875 44.480469 L 62.859375 45.933594 C 63.6875 46.707031 64.984375 46.660156 65.757812 45.832031 C 66.527344 45.003906 66.484375 43.707031 65.65625 42.933594 Z M 64.09375 41.480469 "/>
<path style=" stroke:none;fill-rule:nonzero;fill:rgb(0%,0%,0%);fill-opacity:1;" d="M 64.09375 7.738281 L 65.65625 6.285156 C 66.484375 5.511719 66.527344 4.214844 65.757812 3.386719 C 64.984375 2.558594 63.6875 2.511719 62.859375 3.285156 L 61.296875 4.742188 C 60.46875 5.511719 60.421875 6.808594 61.195312 7.640625 C 61.96875 8.46875 63.265625 8.511719 64.09375 7.738281 Z M 64.09375 7.738281 "/>
<path style=" stroke:none;fill-rule:nonzero;fill:rgb(0%,0%,0%);fill-opacity:1;" d="M 23.378906 55.578125 C 23.378906 58.128906 24.941406 60.320312 27.160156 61.25 L 42.839844 61.25 C 45.058594 60.320312 46.621094 58.128906 46.621094 55.578125 L 46.621094 52.636719 L 23.378906 52.636719 Z M 23.378906 55.578125 "/>
<path style=" stroke:none;fill-rule:nonzero;fill:rgb(0%,0%,0%);fill-opacity:1;" d="M 27.480469 67.949219 C 27.480469 69.082031 28.398438 70 29.53125 70 L 40.46875 70 C 41.601562 70 42.519531 69.082031 42.519531 67.949219 L 42.519531 65.351562 L 27.480469 65.351562 Z M 27.480469 67.949219 "/>
<path style=" stroke:none;fill-rule:nonzero;fill:rgb(0%,0%,0%);fill-opacity:1;" d="M 58.726562 24.609375 C 64.5625 18.652344 61.191406 8.605469 53.023438 7.304688 C 50.976562 0.488281 42.738281 -2.222656 37.050781 2.054688 L 37.050781 49.285156 L 43.203125 49.285156 C 47.832031 49.285156 51.78125 46.246094 53.046875 41.910156 C 61.167969 40.601562 64.574219 30.578125 58.726562 24.609375 Z M 41.152344 12.441406 C 41.152344 11.308594 42.070312 10.390625 43.203125 10.390625 C 44.335938 10.390625 45.253906 11.308594 45.253906 12.441406 C 45.253906 14.542969 46.050781 14.925781 47.636719 15.691406 C 49.136719 16.417969 51.40625 17.515625 51.40625 20.644531 C 51.40625 21.777344 50.488281 22.695312 49.355469 22.695312 C 48.222656 22.695312 47.304688 21.777344 47.304688 20.644531 C 47.304688 20.195312 47.304688 20.085938 45.851562 19.386719 C 44.09375 18.535156 41.152344 17.113281 41.152344 12.441406 Z M 53.316406 31.789062 C 50.957031 35.0625 47.308594 36.417969 46.269531 36.417969 C 45.378906 36.417969 44.554688 35.832031 44.296875 34.929688 C 43.988281 33.84375 44.617188 32.707031 45.707031 32.394531 C 47.402344 31.910156 48.933594 30.851562 49.992188 29.390625 C 50.652344 28.46875 51.933594 28.261719 52.851562 28.925781 C 53.773438 29.589844 53.980469 30.871094 53.316406 31.789062 Z M 53.316406 31.789062 "/>
<path style=" stroke:none;fill-rule:nonzero;fill:rgb(0%,0%,0%);fill-opacity:1;" d="M 32.949219 49.289062 L 32.949219 2.054688 C 27.261719 -2.222656 19.023438 0.488281 16.976562 7.304688 C 8.804688 8.605469 5.441406 18.65625 11.273438 24.609375 C 5.425781 30.578125 8.835938 40.601562 16.953125 41.910156 C 18.222656 46.261719 22.179688 49.289062 26.796875 49.289062 Z M 22.363281 15.691406 C 23.949219 14.925781 24.746094 14.542969 24.746094 12.441406 C 24.746094 11.308594 25.664062 10.390625 26.796875 10.390625 C 27.929688 10.390625 28.847656 11.308594 28.847656 12.441406 C 28.847656 17.113281 25.90625 18.535156 24.148438 19.386719 C 22.695312 20.085938 22.695312 20.195312 22.695312 20.644531 C 22.695312 21.777344 21.777344 22.695312 20.644531 22.695312 C 19.511719 22.695312 18.59375 21.777344 18.59375 20.644531 C 18.59375 17.515625 20.863281 16.417969 22.363281 15.691406 Z M 25.703125 34.929688 C 25.445312 35.832031 24.621094 36.417969 23.730469 36.417969 C 22.660156 36.417969 19.25 35.070312 16.980469 32.183594 C 16.28125 31.292969 16.433594 30.003906 17.324219 29.304688 C 18.214844 28.605469 19.503906 28.757812 20.207031 29.648438 C 21.226562 30.949219 22.664062 31.929688 24.292969 32.394531 C 25.382812 32.707031 26.011719 33.84375 25.703125 34.929688 Z M 25.703125 34.929688 "/>
</g>
</svg>
