<?xml version="1.0" encoding="UTF-8"?>
<svg xmlns="http://www.w3.org/2000/svg" xmlns:xlink="http://www.w3.org/1999/xlink" width="35pt" height="35pt" viewBox="0 0 35 35" version="1.1">
<g id="surface1">
<path style=" stroke:none;fill-rule:nonzero;fill:#ffffff;fill-opacity:1;" d="M 34.953125 10.285156 C 34.871094 8.425781 34.570312 7.148438 34.140625 6.042969 C 33.695312 4.867188 33.011719 3.8125 32.117188 2.9375 C 31.242188 2.050781 30.179688 1.359375 29.019531 0.921875 C 27.90625 0.492188 26.632812 0.191406 24.777344 0.109375 C 22.902344 0.0195312 22.308594 0 17.558594 0 C 12.808594 0 12.214844 0.0195312 10.347656 0.101562 C 8.488281 0.183594 7.210938 0.484375 6.101562 0.914062 C 4.925781 1.359375 3.875 2.042969 3 2.9375 C 2.113281 3.8125 1.421875 4.875 0.984375 6.035156 C 0.554688 7.148438 0.253906 8.421875 0.171875 10.277344 C 0.0820312 12.152344 0.0625 12.746094 0.0625 17.496094 C 0.0625 22.246094 0.0820312 22.839844 0.164062 24.707031 C 0.246094 26.566406 0.546875 27.84375 0.976562 28.953125 C 1.421875 30.128906 2.113281 31.179688 3 32.054688 C 3.875 32.941406 4.933594 33.632812 6.097656 34.070312 C 7.210938 34.5 8.480469 34.800781 10.339844 34.882812 C 12.207031 34.964844 12.800781 34.984375 17.550781 34.984375 C 22.300781 34.984375 22.894531 34.964844 24.761719 34.882812 C 26.621094 34.800781 27.898438 34.5 29.007812 34.070312 C 31.355469 33.160156 33.214844 31.300781 34.125 28.953125 C 34.554688 27.835938 34.855469 26.566406 34.9375 24.707031 C 35.019531 22.839844 35.039062 22.246094 35.039062 17.496094 C 35.039062 12.746094 35.035156 12.152344 34.953125 10.285156 Z M 31.800781 24.570312 C 31.726562 26.277344 31.4375 27.203125 31.199219 27.816406 C 30.613281 29.339844 29.402344 30.550781 27.878906 31.136719 C 27.261719 31.378906 26.332031 31.664062 24.632812 31.738281 C 22.785156 31.820312 22.234375 31.84375 17.566406 31.84375 C 12.898438 31.84375 12.335938 31.820312 10.496094 31.738281 C 8.789062 31.664062 7.867188 31.378906 7.25 31.136719 C 6.492188 30.859375 5.800781 30.414062 5.242188 29.832031 C 4.660156 29.265625 4.21875 28.582031 3.9375 27.824219 C 3.699219 27.207031 3.410156 26.277344 3.335938 24.578125 C 3.253906 22.730469 3.234375 22.179688 3.234375 17.511719 C 3.234375 12.84375 3.253906 12.28125 3.335938 10.441406 C 3.410156 8.734375 3.699219 7.8125 3.9375 7.195312 C 4.21875 6.4375 4.660156 5.746094 5.25 5.1875 C 5.816406 4.605469 6.5 4.164062 7.257812 3.882812 C 7.875 3.644531 8.804688 3.355469 10.503906 3.28125 C 12.351562 3.199219 12.902344 3.179688 17.570312 3.179688 C 22.246094 3.179688 22.800781 3.199219 24.640625 3.28125 C 26.347656 3.355469 27.269531 3.644531 27.886719 3.882812 C 28.644531 4.164062 29.335938 4.605469 29.894531 5.1875 C 30.476562 5.753906 30.917969 6.4375 31.199219 7.195312 C 31.4375 7.8125 31.726562 8.742188 31.800781 10.441406 C 31.882812 12.289062 31.902344 12.84375 31.902344 17.511719 C 31.902344 22.179688 31.882812 22.726562 31.800781 24.570312 Z M 31.800781 24.570312 "/>
<path style=" stroke:none;fill-rule:nonzero;fill:#ffffff;fill-opacity:1;" d="M 17.558594 8.507812 C 12.597656 8.507812 8.570312 12.535156 8.570312 17.496094 C 8.570312 22.457031 12.597656 26.484375 17.558594 26.484375 C 22.519531 26.484375 26.546875 22.457031 26.546875 17.496094 C 26.546875 12.535156 22.519531 8.507812 17.558594 8.507812 Z M 17.558594 23.328125 C 14.339844 23.328125 11.726562 20.714844 11.726562 17.496094 C 11.726562 14.277344 14.339844 11.667969 17.558594 11.667969 C 20.777344 11.667969 23.386719 14.277344 23.386719 17.496094 C 23.386719 20.714844 20.777344 23.328125 17.558594 23.328125 Z M 17.558594 23.328125 "/>
<path style=" stroke:none;fill-rule:nonzero;fill:#ffffff;fill-opacity:1;" d="M 29 8.152344 C 29 9.3125 28.058594 10.25 26.902344 10.25 C 25.742188 10.25 24.800781 9.3125 24.800781 8.152344 C 24.800781 6.996094 25.742188 6.054688 26.902344 6.054688 C 28.058594 6.054688 29 6.996094 29 8.152344 Z M 29 8.152344 "/>
</g>
</svg>
