<?xml version="1.0" encoding="UTF-8"?>
<svg xmlns="http://www.w3.org/2000/svg" xmlns:xlink="http://www.w3.org/1999/xlink" width="35pt" height="35pt" viewBox="0 0 35 35" version="1.1">
<g id="surface1">
<path style=" stroke:none;fill-rule:nonzero;fill:#ffffff;fill-opacity:1;" d="M 34.992188 35 L 35 35 L 35 22.164062 C 35 15.882812 33.648438 11.046875 26.308594 11.046875 C 22.777344 11.046875 20.410156 12.980469 19.441406 14.816406 L 19.339844 14.816406 L 19.339844 11.632812 L 12.378906 11.632812 L 12.378906 35 L 19.628906 35 L 19.628906 23.429688 C 19.628906 20.382812 20.207031 17.4375 23.976562 17.4375 C 27.695312 17.4375 27.75 20.914062 27.75 23.625 L 27.75 35 Z M 34.992188 35 "/>
<path style=" stroke:none;fill-rule:nonzero;fill:#ffffff;fill-opacity:1;" d="M 0.578125 11.632812 L 7.835938 11.632812 L 7.835938 35 L 0.578125 35 Z M 0.578125 11.632812 "/>
<path style=" stroke:none;fill-rule:nonzero;fill:#ffffff;fill-opacity:1;" d="M 4.203125 0 C 1.882812 0 0 1.882812 0 4.203125 C 0 6.523438 1.882812 8.445312 4.203125 8.445312 C 6.523438 8.445312 8.40625 6.523438 8.40625 4.203125 C 8.40625 1.882812 6.523438 0 4.203125 0 Z M 4.203125 0 "/>
</g>
</svg>
