<?xml version="1.0" encoding="UTF-8"?>
<svg xmlns="http://www.w3.org/2000/svg" xmlns:xlink="http://www.w3.org/1999/xlink" width="70pt" height="70pt" viewBox="0 0 70 70" version="1.1">
<g id="surface1">
<path style=" stroke:none;fill-rule:nonzero;fill:rgb(0%,0%,0%);fill-opacity:1;" d="M 65.898438 3.417969 L 4.101562 3.417969 C 1.839844 3.417969 0 5.257812 0 7.519531 L 0 48.261719 C 0 50.523438 1.839844 52.363281 4.101562 52.363281 L 65.898438 52.363281 C 68.160156 52.363281 70 50.523438 70 48.261719 L 70 7.519531 C 70 5.257812 68.160156 3.417969 65.898438 3.417969 Z M 65.898438 3.417969 "/>
<path style=" stroke:none;fill-rule:nonzero;fill:rgb(0%,0%,0%);fill-opacity:1;" d="M 56.875 62.480469 L 45.800781 62.480469 L 45.800781 56.464844 L 24.199219 56.464844 L 24.199219 62.480469 L 13.125 62.480469 C 11.992188 62.480469 11.074219 63.398438 11.074219 64.53125 C 11.074219 65.664062 11.992188 66.582031 13.125 66.582031 L 56.875 66.582031 C 58.007812 66.582031 58.925781 65.664062 58.925781 64.53125 C 58.925781 63.398438 58.007812 62.480469 56.875 62.480469 Z M 56.875 62.480469 "/>
</g>
</svg>
