<?xml version="1.0" encoding="UTF-8"?>
<svg xmlns="http://www.w3.org/2000/svg" xmlns:xlink="http://www.w3.org/1999/xlink" width="70pt" height="70pt" viewBox="0 0 70 70" version="1.1">
<g id="surface1">
<path style=" stroke:none;fill-rule:nonzero;fill:rgb(0%,0%,0%);fill-opacity:1;" d="M 39.144531 9.902344 C 39.144531 12.664062 36.902344 14.902344 34.140625 14.902344 C 31.375 14.902344 29.136719 12.664062 29.136719 9.902344 C 29.136719 7.136719 31.375 4.898438 34.140625 4.898438 C 36.902344 4.898438 39.144531 7.136719 39.144531 9.902344 Z M 39.144531 9.902344 "/>
<path style=" stroke:none;fill-rule:nonzero;fill:rgb(0%,0%,0%);fill-opacity:1;" d="M 49.671875 4.554688 C 49.894531 4.464844 50.117188 4.398438 50.34375 4.347656 L 50.34375 4.285156 C 50.34375 2.953125 49.261719 1.878906 47.929688 1.878906 C 47.929688 1.878906 47.925781 1.878906 47.925781 1.878906 C 46.59375 1.878906 45.511719 2.960938 45.515625 4.296875 L 45.53125 12.71875 L 38.796875 16.5 C 34.65625 16.5 36.859375 16.5 29.546875 16.5 L 22.8125 12.71875 L 22.828125 4.296875 C 22.832031 2.960938 21.753906 1.878906 20.417969 1.878906 C 20.417969 1.878906 20.417969 1.878906 20.414062 1.878906 C 19.25 1.878906 18.277344 2.703125 18.050781 3.800781 C 18.152344 3.816406 18.253906 3.835938 18.355469 3.859375 C 20.671875 4.421875 22.09375 6.753906 21.535156 9.070312 L 19.730469 16.523438 L 27.71875 21.007812 L 27.71875 39.582031 L 26.289062 62.613281 C 26.191406 64.210938 27.40625 65.585938 29.003906 65.683594 C 29.0625 65.6875 29.125 65.6875 29.183594 65.6875 C 30.703125 65.6875 31.976562 64.507812 32.074219 62.972656 C 32.480469 56.351562 33.511719 39.863281 33.511719 39.636719 L 34.769531 39.636719 C 34.769531 39.863281 35.796875 56.351562 36.207031 62.972656 C 36.300781 64.507812 37.578125 65.6875 39.097656 65.6875 C 39.15625 65.6875 39.21875 65.6875 39.277344 65.683594 C 40.875 65.585938 42.089844 64.210938 41.988281 62.613281 L 40.558594 39.519531 L 40.535156 21.058594 C 40.644531 21 49.550781 15.933594 49.550781 15.933594 L 47.253906 10.15625 C 46.375 7.941406 47.457031 5.433594 49.671875 4.554688 Z M 49.671875 4.554688 "/>
<path style=" stroke:none;fill-rule:nonzero;fill:rgb(0%,0%,0%);fill-opacity:1;" d="M 11.300781 14.648438 C 10.699219 12.546875 8.761719 11.003906 6.460938 11.003906 C 3.679688 11.003906 1.425781 13.257812 1.425781 16.042969 C 1.425781 18.824219 3.679688 21.078125 6.460938 21.078125 C 6.925781 21.078125 7.378906 21.011719 7.804688 20.894531 L 10.785156 16.792969 Z M 11.300781 14.648438 "/>
<path style=" stroke:none;fill-rule:nonzero;fill:rgb(0%,0%,0%);fill-opacity:1;" d="M 17.929688 5.617188 C 16.582031 5.289062 15.226562 6.117188 14.898438 7.464844 L 12.605469 16.949219 L 5.921875 22.644531 L 3.402344 22.644531 C 1.523438 22.644531 0 24.167969 0 26.046875 C 0 26.046875 0 58.976562 0 65.207031 C 0 66.816406 1.308594 68.121094 2.917969 68.121094 C 4.527344 68.121094 5.832031 66.816406 5.832031 65.207031 C 5.832031 58.972656 5.832031 50.074219 5.832031 43.503906 L 6.777344 43.503906 C 7.347656 45.171875 9.128906 50.371094 9.996094 52.90625 L 11.035156 65.449219 C 11.167969 67.042969 12.566406 68.246094 14.183594 68.113281 C 15.785156 67.980469 16.980469 66.570312 16.847656 64.964844 L 15.777344 52.0625 C 15.757812 51.824219 15.707031 51.585938 15.628906 51.359375 C 14.980469 49.457031 13.523438 45.199219 12.871094 43.296875 L 12.871094 26.046875 C 12.871094 25.402344 12.691406 24.800781 12.382812 24.289062 L 10.785156 25.097656 L 16.480469 20.238281 C 16.882812 19.894531 17.167969 19.433594 17.292969 18.917969 L 19.777344 8.644531 C 20.105469 7.300781 19.277344 5.941406 17.929688 5.617188 Z M 17.929688 5.617188 "/>
<path style=" stroke:none;fill-rule:nonzero;fill:rgb(0%,0%,0%);fill-opacity:1;" d="M 70 26.046875 C 70 24.167969 68.476562 22.644531 66.597656 22.644531 L 64.078125 22.644531 L 57.25 16.824219 L 53.597656 7.636719 C 53.085938 6.347656 51.625 5.71875 50.339844 6.230469 C 49.050781 6.742188 48.421875 8.203125 48.933594 9.492188 L 52.816406 19.257812 C 52.964844 19.636719 53.207031 19.972656 53.519531 20.238281 L 59.214844 25.097656 L 57.617188 24.289062 C 57.308594 24.800781 57.128906 25.402344 57.128906 26.046875 L 57.128906 43.074219 L 54.390625 50.539062 C 54.203125 51.050781 54.164062 51.605469 54.273438 52.140625 L 57.136719 65.804688 C 57.46875 67.386719 59.019531 68.390625 60.589844 68.0625 C 62.167969 67.730469 63.175781 66.183594 62.847656 64.609375 L 60.152344 51.761719 L 63.183594 43.503906 L 64.167969 43.503906 C 64.167969 43.507812 64.167969 43.511719 64.167969 43.515625 L 64.167969 65.207031 C 64.167969 66.816406 65.472656 68.125 67.082031 68.125 C 68.695312 68.125 70 66.816406 70 65.207031 Z M 70 26.046875 "/>
<path style=" stroke:none;fill-rule:nonzero;fill:rgb(0%,0%,0%);fill-opacity:1;" d="M 68.574219 16.042969 C 68.574219 13.257812 66.320312 11.003906 63.539062 11.003906 C 61.027344 11.003906 58.949219 12.839844 58.566406 15.242188 L 59.136719 16.683594 L 62.195312 20.894531 C 62.621094 21.011719 63.074219 21.078125 63.539062 21.078125 C 66.320312 21.078125 68.574219 18.824219 68.574219 16.042969 Z M 68.574219 16.042969 "/>
</g>
</svg>
